<svg width="193" height="30" viewBox="0 0 193 30" fill="none" xmlns="http://www.w3.org/2000/svg">
<path d="M65.54 9.18C67.02 9.18 68.3067 9.46 69.4 10.02C70.4933 10.58 71.3333 11.3667 71.92 12.38C72.5067 13.38 72.8 14.54 72.8 15.86C72.8 16.9133 72.6267 17.9267 72.28 18.9C71.9333 19.86 71.4267 20.64 70.76 21.24C70.1067 21.84 69.34 22.14 68.46 22.14C67.7933 22.14 67.28 21.9733 66.92 21.64C66.56 21.3067 66.3533 20.8533 66.3 20.28C65.8867 20.8533 65.36 21.3067 64.72 21.64C64.0933 21.9733 63.4267 22.14 62.72 22.14C61.7067 22.14 60.9067 21.8333 60.32 21.22C59.7467 20.5933 59.46 19.7533 59.46 18.7C59.46 17.7 59.6667 16.7667 60.08 15.9C60.5067 15.0333 61.0933 14.34 61.84 13.82C62.5867 13.2867 63.4333 13.02 64.38 13.02C65.6467 13.02 66.5 13.5 66.94 14.46L67.16 13.22H68.74L67.74 19C67.7 19.2533 67.68 19.4867 67.68 19.7C67.68 20.5 68.0333 20.9 68.74 20.9C69.2733 20.9 69.7333 20.6467 70.12 20.14C70.52 19.6333 70.82 19 71.02 18.24C71.22 17.4667 71.32 16.7067 71.32 15.96C71.32 14.2133 70.7933 12.86 69.74 11.9C68.7 10.94 67.2267 10.46 65.32 10.46C63.7333 10.46 62.3 10.8467 61.02 11.62C59.7533 12.38 58.76 13.4267 58.04 14.76C57.32 16.0933 56.96 17.5667 56.96 19.18C56.9467 20.94 57.4733 22.2933 58.54 23.24C59.6067 24.2 61.0867 24.68 62.98 24.68C64.2333 24.68 65.34 24.4533 66.3 24L66.54 25.24C65.3533 25.7333 64.0467 25.98 62.62 25.98C61.1933 25.98 59.9333 25.7067 58.84 25.16C57.76 24.6267 56.92 23.8533 56.32 22.84C55.7333 21.84 55.44 20.6733 55.44 19.34C55.44 17.46 55.8733 15.7467 56.74 14.2C57.6067 12.64 58.8067 11.4133 60.34 10.52C61.8867 9.62667 63.62 9.18 65.54 9.18ZM63.26 20.72C63.86 20.72 64.4133 20.5467 64.92 20.2C65.4267 19.84 65.8267 19.36 66.12 18.76C66.4133 18.1467 66.56 17.48 66.56 16.76C66.56 16.0667 66.3667 15.5067 65.98 15.08C65.6067 14.64 65.0733 14.42 64.38 14.42C63.74 14.42 63.1733 14.6133 62.68 15C62.2 15.3733 61.8267 15.8733 61.56 16.5C61.2933 17.1133 61.16 17.7533 61.16 18.42C61.16 19.1267 61.34 19.6867 61.7 20.1C62.06 20.5133 62.58 20.72 63.26 20.72ZM75.1139 16.48C75.1139 15.36 75.3406 14.38 75.7939 13.54C76.2472 12.6867 76.8672 12.0267 77.6539 11.56C78.4539 11.0933 79.3406 10.86 80.3139 10.86C81.2739 10.86 82.1072 11.0667 82.8139 11.48C83.5206 11.8933 84.0472 12.4133 84.3939 13.04V11.04H86.2339V22H84.3939V19.96C84.0339 20.6 83.4939 21.1333 82.7739 21.56C82.0672 21.9733 81.2406 22.18 80.2939 22.18C79.3206 22.18 78.4406 21.94 77.6539 21.46C76.8672 20.98 76.2472 20.3067 75.7939 19.44C75.3406 18.5733 75.1139 17.5867 75.1139 16.48ZM84.3939 16.5C84.3939 15.6733 84.2272 14.9533 83.8939 14.34C83.5606 13.7267 83.1072 13.26 82.5339 12.94C81.9739 12.6067 81.3539 12.44 80.6739 12.44C79.9939 12.44 79.3739 12.6 78.8139 12.92C78.2539 13.24 77.8072 13.7067 77.4739 14.32C77.1406 14.9333 76.9739 15.6533 76.9739 16.48C76.9739 17.32 77.1406 18.0533 77.4739 18.68C77.8072 19.2933 78.2539 19.7667 78.8139 20.1C79.3739 20.42 79.9939 20.58 80.6739 20.58C81.3539 20.58 81.9739 20.42 82.5339 20.1C83.1072 19.7667 83.5606 19.2933 83.8939 18.68C84.2272 18.0533 84.3939 17.3267 84.3939 16.5ZM91.1295 7.2V22H89.3095V7.2H91.1295ZM93.5514 16.48C93.5514 15.36 93.7781 14.38 94.2314 13.54C94.6847 12.6867 95.3047 12.0267 96.0914 11.56C96.8914 11.0933 97.7781 10.86 98.7514 10.86C99.7114 10.86 100.545 11.0667 101.251 11.48C101.958 11.8933 102.485 12.4133 102.831 13.04V11.04H104.671V22H102.831V19.96C102.471 20.6 101.931 21.1333 101.211 21.56C100.505 21.9733 99.6781 22.18 98.7314 22.18C97.7581 22.18 96.8781 21.94 96.0914 21.46C95.3047 20.98 94.6847 20.3067 94.2314 19.44C93.7781 18.5733 93.5514 17.5867 93.5514 16.48ZM102.831 16.5C102.831 15.6733 102.665 14.9533 102.331 14.34C101.998 13.7267 101.545 13.26 100.971 12.94C100.411 12.6067 99.7914 12.44 99.1114 12.44C98.4314 12.44 97.8114 12.6 97.2514 12.92C96.6914 13.24 96.2447 13.7067 95.9114 14.32C95.5781 14.9333 95.4114 15.6533 95.4114 16.48C95.4114 17.32 95.5781 18.0533 95.9114 18.68C96.2447 19.2933 96.6914 19.7667 97.2514 20.1C97.8114 20.42 98.4314 20.58 99.1114 20.58C99.7914 20.58 100.411 20.42 100.971 20.1C101.545 19.7667 101.998 19.2933 102.331 18.68C102.665 18.0533 102.831 17.3267 102.831 16.5ZM107.067 16.48C107.067 15.36 107.294 14.38 107.747 13.54C108.2 12.6867 108.82 12.0267 109.607 11.56C110.407 11.0933 111.3 10.86 112.287 10.86C113.14 10.86 113.934 11.06 114.667 11.46C115.4 11.8467 115.96 12.36 116.347 13V7.2H118.187V22H116.347V19.94C115.987 20.5933 115.454 21.1333 114.747 21.56C114.04 21.9733 113.214 22.18 112.267 22.18C111.294 22.18 110.407 21.94 109.607 21.46C108.82 20.98 108.2 20.3067 107.747 19.44C107.294 18.5733 107.067 17.5867 107.067 16.48ZM116.347 16.5C116.347 15.6733 116.18 14.9533 115.847 14.34C115.514 13.7267 115.06 13.26 114.487 12.94C113.927 12.6067 113.307 12.44 112.627 12.44C111.947 12.44 111.327 12.6 110.767 12.92C110.207 13.24 109.76 13.7067 109.427 14.32C109.094 14.9333 108.927 15.6533 108.927 16.48C108.927 17.32 109.094 18.0533 109.427 18.68C109.76 19.2933 110.207 19.7667 110.767 20.1C111.327 20.42 111.947 20.58 112.627 20.58C113.307 20.58 113.927 20.42 114.487 20.1C115.06 19.7667 115.514 19.2933 115.847 18.68C116.18 18.0533 116.347 17.3267 116.347 16.5ZM120.583 16.48C120.583 15.36 120.809 14.38 121.263 13.54C121.716 12.6867 122.336 12.0267 123.123 11.56C123.923 11.0933 124.809 10.86 125.783 10.86C126.743 10.86 127.576 11.0667 128.283 11.48C128.989 11.8933 129.516 12.4133 129.863 13.04V11.04H131.703V22H129.863V19.96C129.503 20.6 128.963 21.1333 128.243 21.56C127.536 21.9733 126.709 22.18 125.763 22.18C124.789 22.18 123.909 21.94 123.123 21.46C122.336 20.98 121.716 20.3067 121.263 19.44C120.809 18.5733 120.583 17.5867 120.583 16.48ZM129.863 16.5C129.863 15.6733 129.696 14.9533 129.363 14.34C129.029 13.7267 128.576 13.26 128.003 12.94C127.443 12.6067 126.823 12.44 126.143 12.44C125.463 12.44 124.843 12.6 124.283 12.92C123.723 13.24 123.276 13.7067 122.943 14.32C122.609 14.9333 122.443 15.6533 122.443 16.48C122.443 17.32 122.609 18.0533 122.943 18.68C123.276 19.2933 123.723 19.7667 124.283 20.1C124.843 20.42 125.463 20.58 126.143 20.58C126.823 20.58 127.443 20.42 128.003 20.1C128.576 19.7667 129.029 19.2933 129.363 18.68C129.696 18.0533 129.863 17.3267 129.863 16.5ZM145.978 22.76V24.44H135.338V22.76H145.978ZM151.666 12.54V19C151.666 19.5333 151.78 19.9133 152.006 20.14C152.233 20.3533 152.626 20.46 153.186 20.46H154.526V22H152.886C151.873 22 151.113 21.7667 150.606 21.3C150.1 20.8333 149.846 20.0667 149.846 19V12.54H148.426V11.04H149.846V8.28H151.666V11.04H154.526V12.54H151.666ZM166.731 16.1C166.731 16.4467 166.711 16.8133 166.671 17.2H157.911C157.978 18.28 158.345 19.1267 159.011 19.74C159.691 20.34 160.511 20.64 161.471 20.64C162.258 20.64 162.911 20.46 163.431 20.1C163.965 19.7267 164.338 19.2333 164.551 18.62H166.511C166.218 19.6733 165.631 20.5333 164.751 21.2C163.871 21.8533 162.778 22.18 161.471 22.18C160.431 22.18 159.498 21.9467 158.671 21.48C157.858 21.0133 157.218 20.3533 156.751 19.5C156.285 18.6333 156.051 17.6333 156.051 16.5C156.051 15.3667 156.278 14.3733 156.731 13.52C157.185 12.6667 157.818 12.0133 158.631 11.56C159.458 11.0933 160.405 10.86 161.471 10.86C162.511 10.86 163.431 11.0867 164.231 11.54C165.031 11.9933 165.645 12.62 166.071 13.42C166.511 14.2067 166.731 15.1 166.731 16.1ZM164.851 15.72C164.851 15.0267 164.698 14.4333 164.391 13.94C164.085 13.4333 163.665 13.0533 163.131 12.8C162.611 12.5333 162.031 12.4 161.391 12.4C160.471 12.4 159.685 12.6933 159.031 13.28C158.391 13.8667 158.025 14.68 157.931 15.72H164.851ZM168.454 16.5C168.454 15.3667 168.68 14.38 169.134 13.54C169.587 12.6867 170.214 12.0267 171.014 11.56C171.827 11.0933 172.754 10.86 173.794 10.86C175.14 10.86 176.247 11.1867 177.114 11.84C177.994 12.4933 178.574 13.4 178.854 14.56H176.894C176.707 13.8933 176.34 13.3667 175.794 12.98C175.26 12.5933 174.594 12.4 173.794 12.4C172.754 12.4 171.914 12.76 171.274 13.48C170.634 14.1867 170.314 15.1933 170.314 16.5C170.314 17.82 170.634 18.84 171.274 19.56C171.914 20.28 172.754 20.64 173.794 20.64C174.594 20.64 175.26 20.4533 175.794 20.08C176.327 19.7067 176.694 19.1733 176.894 18.48H178.854C178.56 19.6 177.974 20.5 177.094 21.18C176.214 21.8467 175.114 22.18 173.794 22.18C172.754 22.18 171.827 21.9467 171.014 21.48C170.214 21.0133 169.587 20.3533 169.134 19.5C168.68 18.6467 168.454 17.6467 168.454 16.5ZM186.722 10.84C187.549 10.84 188.296 11.02 188.962 11.38C189.629 11.7267 190.149 12.2533 190.522 12.96C190.909 13.6667 191.102 14.5267 191.102 15.54V22H189.302V15.8C189.302 14.7067 189.029 13.8733 188.482 13.3C187.936 12.7133 187.189 12.42 186.242 12.42C185.282 12.42 184.516 12.72 183.942 13.32C183.382 13.92 183.102 14.7933 183.102 15.94V22H181.282V7.2H183.102V12.6C183.462 12.04 183.956 11.6067 184.582 11.3C185.222 10.9933 185.936 10.84 186.722 10.84Z" fill="#F21189"/>
<g clip-path="url(#clip0_1_73)">
<path d="M30 15C30 23.0273 23.2863 29.5312 15 29.5312C13.4516 29.5312 11.9637 29.3027 10.5605 28.8809C11.1714 27.9141 12.0847 26.332 12.4234 25.0723C12.6048 24.3926 13.3548 21.6152 13.3548 21.6152C13.8448 22.5176 15.2722 23.2852 16.7903 23.2852C21.3145 23.2852 24.5746 19.2539 24.5746 14.2441C24.5746 9.44531 20.5282 5.85352 15.3266 5.85352C8.85484 5.85352 5.41331 10.0605 5.41331 14.6484C5.41331 16.7812 6.58669 19.4355 8.45565 20.2793C8.73992 20.4082 8.89113 20.3496 8.95766 20.0859C9.00605 19.8867 9.26008 18.8965 9.375 18.4395C9.41129 18.293 9.39314 18.1641 9.27218 18.0234C8.66129 17.291 8.16532 15.9551 8.16532 14.707C8.16532 11.502 10.6694 8.40234 14.9395 8.40234C18.623 8.40234 21.2056 10.834 21.2056 14.3145C21.2056 18.2461 19.1552 20.9707 16.4879 20.9707C15.0181 20.9707 13.9113 19.793 14.2681 18.3457C14.6915 16.6172 15.5081 14.7539 15.5081 13.5059C15.5081 12.3926 14.8911 11.4609 13.6089 11.4609C12.1028 11.4609 10.8931 12.9668 10.8931 14.9883C10.8931 16.2773 11.3407 17.1445 11.3407 17.1445C11.3407 17.1445 9.85887 23.2266 9.58669 24.3633C9.28427 25.6172 9.40524 27.3867 9.53226 28.5352C3.95565 26.4199 0 21.1582 0 15C0 6.97266 6.71371 0.46875 15 0.46875C23.2863 0.46875 30 6.97266 30 15Z" fill="#F21189"/>
</g>
<defs>
<clipPath id="clip0_1_73">
<rect width="30" height="30" fill="white"/>
</clipPath>
</defs>
</svg>
