<svg width="190" height="30" viewBox="0 0 190 30" fill="none" xmlns="http://www.w3.org/2000/svg">
<g clip-path="url(#clip0_1_69)">
<path d="M15.0068 8.26172C10.7479 8.26172 7.31264 11.2676 7.31264 14.9941C7.31264 18.7207 10.7479 21.7266 15.0068 21.7266C19.2658 21.7266 22.701 18.7207 22.701 14.9941C22.701 11.2676 19.2658 8.26172 15.0068 8.26172ZM15.0068 19.3711C12.2546 19.3711 10.0046 17.4082 10.0046 14.9941C10.0046 12.5801 12.2479 10.6172 15.0068 10.6172C17.7658 10.6172 20.0091 12.5801 20.0091 14.9941C20.0091 17.4082 17.7591 19.3711 15.0068 19.3711ZM24.8104 7.98633C24.8104 8.85938 24.0068 9.55664 23.0158 9.55664C22.018 9.55664 21.2211 8.85352 21.2211 7.98633C21.2211 7.11914 22.0247 6.41602 23.0158 6.41602C24.0068 6.41602 24.8104 7.11914 24.8104 7.98633ZM29.9064 9.58008C29.7926 7.47656 29.2434 5.61328 27.4823 4.07812C25.7278 2.54297 23.5984 2.0625 21.1943 1.95703C18.7167 1.83398 11.2903 1.83398 8.81264 1.95703C6.41532 2.05664 4.28585 2.53711 2.52469 4.07227C0.763533 5.60742 0.221122 7.4707 0.100586 9.57422C-0.0400391 11.7422 -0.0400391 18.2402 0.100586 20.4082C0.214425 22.5117 0.763533 24.375 2.52469 25.9102C4.28585 27.4453 6.40862 27.9258 8.81264 28.0312C11.2903 28.1543 18.7167 28.1543 21.1943 28.0312C23.5984 27.9316 25.7278 27.4512 27.4823 25.9102C29.2367 24.375 29.7859 22.5117 29.9064 20.4082C30.047 18.2402 30.047 11.748 29.9064 9.58008ZM26.7055 22.7344C26.1832 23.8828 25.172 24.7676 23.8528 25.2305C21.8774 25.916 17.1899 25.7578 15.0068 25.7578C12.8238 25.7578 8.1296 25.9102 6.16085 25.2305C4.84835 24.7734 3.83719 23.8887 3.30818 22.7344C2.52469 21.0059 2.7055 16.9043 2.7055 14.9941C2.7055 13.084 2.53139 8.97656 3.30818 7.25391C3.8305 6.10547 4.84166 5.2207 6.16085 4.75781C8.1363 4.07227 12.8238 4.23047 15.0068 4.23047C17.1899 4.23047 21.8841 4.07812 23.8528 4.75781C25.1653 5.21484 26.1765 6.09961 26.7055 7.25391C27.489 8.98242 27.3082 13.084 27.3082 14.9941C27.3082 16.9043 27.489 21.0117 26.7055 22.7344Z" fill="#5C2410"/>
</g>
<path d="M62.54 9.18C64.02 9.18 65.3067 9.46 66.4 10.02C67.4933 10.58 68.3333 11.3667 68.92 12.38C69.5067 13.38 69.8 14.54 69.8 15.86C69.8 16.9133 69.6267 17.9267 69.28 18.9C68.9333 19.86 68.4267 20.64 67.76 21.24C67.1067 21.84 66.34 22.14 65.46 22.14C64.7933 22.14 64.28 21.9733 63.92 21.64C63.56 21.3067 63.3533 20.8533 63.3 20.28C62.8867 20.8533 62.36 21.3067 61.72 21.64C61.0933 21.9733 60.4267 22.14 59.72 22.14C58.7067 22.14 57.9067 21.8333 57.32 21.22C56.7467 20.5933 56.46 19.7533 56.46 18.7C56.46 17.7 56.6667 16.7667 57.08 15.9C57.5067 15.0333 58.0933 14.34 58.84 13.82C59.5867 13.2867 60.4333 13.02 61.38 13.02C62.6467 13.02 63.5 13.5 63.94 14.46L64.16 13.22H65.74L64.74 19C64.7 19.2533 64.68 19.4867 64.68 19.7C64.68 20.5 65.0333 20.9 65.74 20.9C66.2733 20.9 66.7333 20.6467 67.12 20.14C67.52 19.6333 67.82 19 68.02 18.24C68.22 17.4667 68.32 16.7067 68.32 15.96C68.32 14.2133 67.7933 12.86 66.74 11.9C65.7 10.94 64.2267 10.46 62.32 10.46C60.7333 10.46 59.3 10.8467 58.02 11.62C56.7533 12.38 55.76 13.4267 55.04 14.76C54.32 16.0933 53.96 17.5667 53.96 19.18C53.9467 20.94 54.4733 22.2933 55.54 23.24C56.6067 24.2 58.0867 24.68 59.98 24.68C61.2333 24.68 62.34 24.4533 63.3 24L63.54 25.24C62.3533 25.7333 61.0467 25.98 59.62 25.98C58.1933 25.98 56.9333 25.7067 55.84 25.16C54.76 24.6267 53.92 23.8533 53.32 22.84C52.7333 21.84 52.44 20.6733 52.44 19.34C52.44 17.46 52.8733 15.7467 53.74 14.2C54.6067 12.64 55.8067 11.4133 57.34 10.52C58.8867 9.62667 60.62 9.18 62.54 9.18ZM60.26 20.72C60.86 20.72 61.4133 20.5467 61.92 20.2C62.4267 19.84 62.8267 19.36 63.12 18.76C63.4133 18.1467 63.56 17.48 63.56 16.76C63.56 16.0667 63.3667 15.5067 62.98 15.08C62.6067 14.64 62.0733 14.42 61.38 14.42C60.74 14.42 60.1733 14.6133 59.68 15C59.2 15.3733 58.8267 15.8733 58.56 16.5C58.2933 17.1133 58.16 17.7533 58.16 18.42C58.16 19.1267 58.34 19.6867 58.7 20.1C59.06 20.5133 59.58 20.72 60.26 20.72ZM72.1139 16.48C72.1139 15.36 72.3406 14.38 72.7939 13.54C73.2472 12.6867 73.8672 12.0267 74.6539 11.56C75.4539 11.0933 76.3406 10.86 77.3139 10.86C78.2739 10.86 79.1072 11.0667 79.8139 11.48C80.5206 11.8933 81.0472 12.4133 81.3939 13.04V11.04H83.2339V22H81.3939V19.96C81.0339 20.6 80.4939 21.1333 79.7739 21.56C79.0672 21.9733 78.2406 22.18 77.2939 22.18C76.3206 22.18 75.4406 21.94 74.6539 21.46C73.8672 20.98 73.2472 20.3067 72.7939 19.44C72.3406 18.5733 72.1139 17.5867 72.1139 16.48ZM81.3939 16.5C81.3939 15.6733 81.2272 14.9533 80.8939 14.34C80.5606 13.7267 80.1072 13.26 79.5339 12.94C78.9739 12.6067 78.3539 12.44 77.6739 12.44C76.9939 12.44 76.3739 12.6 75.8139 12.92C75.2539 13.24 74.8072 13.7067 74.4739 14.32C74.1406 14.9333 73.9739 15.6533 73.9739 16.48C73.9739 17.32 74.1406 18.0533 74.4739 18.68C74.8072 19.2933 75.2539 19.7667 75.8139 20.1C76.3739 20.42 76.9939 20.58 77.6739 20.58C78.3539 20.58 78.9739 20.42 79.5339 20.1C80.1072 19.7667 80.5606 19.2933 80.8939 18.68C81.2272 18.0533 81.3939 17.3267 81.3939 16.5ZM88.1295 7.2V22H86.3095V7.2H88.1295ZM90.5514 16.48C90.5514 15.36 90.7781 14.38 91.2314 13.54C91.6847 12.6867 92.3047 12.0267 93.0914 11.56C93.8914 11.0933 94.7781 10.86 95.7514 10.86C96.7114 10.86 97.5447 11.0667 98.2514 11.48C98.9581 11.8933 99.4847 12.4133 99.8314 13.04V11.04H101.671V22H99.8314V19.96C99.4714 20.6 98.9314 21.1333 98.2114 21.56C97.5047 21.9733 96.6781 22.18 95.7314 22.18C94.7581 22.18 93.8781 21.94 93.0914 21.46C92.3047 20.98 91.6847 20.3067 91.2314 19.44C90.7781 18.5733 90.5514 17.5867 90.5514 16.48ZM99.8314 16.5C99.8314 15.6733 99.6647 14.9533 99.3314 14.34C98.9981 13.7267 98.5447 13.26 97.9714 12.94C97.4114 12.6067 96.7914 12.44 96.1114 12.44C95.4314 12.44 94.8114 12.6 94.2514 12.92C93.6914 13.24 93.2447 13.7067 92.9114 14.32C92.5781 14.9333 92.4114 15.6533 92.4114 16.48C92.4114 17.32 92.5781 18.0533 92.9114 18.68C93.2447 19.2933 93.6914 19.7667 94.2514 20.1C94.8114 20.42 95.4314 20.58 96.1114 20.58C96.7914 20.58 97.4114 20.42 97.9714 20.1C98.5447 19.7667 98.9981 19.2933 99.3314 18.68C99.6647 18.0533 99.8314 17.3267 99.8314 16.5ZM104.067 16.48C104.067 15.36 104.294 14.38 104.747 13.54C105.2 12.6867 105.82 12.0267 106.607 11.56C107.407 11.0933 108.3 10.86 109.287 10.86C110.14 10.86 110.934 11.06 111.667 11.46C112.4 11.8467 112.96 12.36 113.347 13V7.2H115.187V22H113.347V19.94C112.987 20.5933 112.454 21.1333 111.747 21.56C111.04 21.9733 110.214 22.18 109.267 22.18C108.294 22.18 107.407 21.94 106.607 21.46C105.82 20.98 105.2 20.3067 104.747 19.44C104.294 18.5733 104.067 17.5867 104.067 16.48ZM113.347 16.5C113.347 15.6733 113.18 14.9533 112.847 14.34C112.514 13.7267 112.06 13.26 111.487 12.94C110.927 12.6067 110.307 12.44 109.627 12.44C108.947 12.44 108.327 12.6 107.767 12.92C107.207 13.24 106.76 13.7067 106.427 14.32C106.094 14.9333 105.927 15.6533 105.927 16.48C105.927 17.32 106.094 18.0533 106.427 18.68C106.76 19.2933 107.207 19.7667 107.767 20.1C108.327 20.42 108.947 20.58 109.627 20.58C110.307 20.58 110.927 20.42 111.487 20.1C112.06 19.7667 112.514 19.2933 112.847 18.68C113.18 18.0533 113.347 17.3267 113.347 16.5ZM117.583 16.48C117.583 15.36 117.809 14.38 118.263 13.54C118.716 12.6867 119.336 12.0267 120.123 11.56C120.923 11.0933 121.809 10.86 122.783 10.86C123.743 10.86 124.576 11.0667 125.283 11.48C125.989 11.8933 126.516 12.4133 126.863 13.04V11.04H128.703V22H126.863V19.96C126.503 20.6 125.963 21.1333 125.243 21.56C124.536 21.9733 123.709 22.18 122.763 22.18C121.789 22.18 120.909 21.94 120.123 21.46C119.336 20.98 118.716 20.3067 118.263 19.44C117.809 18.5733 117.583 17.5867 117.583 16.48ZM126.863 16.5C126.863 15.6733 126.696 14.9533 126.363 14.34C126.029 13.7267 125.576 13.26 125.003 12.94C124.443 12.6067 123.823 12.44 123.143 12.44C122.463 12.44 121.843 12.6 121.283 12.92C120.723 13.24 120.276 13.7067 119.943 14.32C119.609 14.9333 119.443 15.6533 119.443 16.48C119.443 17.32 119.609 18.0533 119.943 18.68C120.276 19.2933 120.723 19.7667 121.283 20.1C121.843 20.42 122.463 20.58 123.143 20.58C123.823 20.58 124.443 20.42 125.003 20.1C125.576 19.7667 126.029 19.2933 126.363 18.68C126.696 18.0533 126.863 17.3267 126.863 16.5ZM142.978 22.76V24.44H132.338V22.76H142.978ZM148.666 12.54V19C148.666 19.5333 148.78 19.9133 149.006 20.14C149.233 20.3533 149.626 20.46 150.186 20.46H151.526V22H149.886C148.873 22 148.113 21.7667 147.606 21.3C147.1 20.8333 146.846 20.0667 146.846 19V12.54H145.426V11.04H146.846V8.28H148.666V11.04H151.526V12.54H148.666ZM163.731 16.1C163.731 16.4467 163.711 16.8133 163.671 17.2H154.911C154.978 18.28 155.345 19.1267 156.011 19.74C156.691 20.34 157.511 20.64 158.471 20.64C159.258 20.64 159.911 20.46 160.431 20.1C160.965 19.7267 161.338 19.2333 161.551 18.62H163.511C163.218 19.6733 162.631 20.5333 161.751 21.2C160.871 21.8533 159.778 22.18 158.471 22.18C157.431 22.18 156.498 21.9467 155.671 21.48C154.858 21.0133 154.218 20.3533 153.751 19.5C153.285 18.6333 153.051 17.6333 153.051 16.5C153.051 15.3667 153.278 14.3733 153.731 13.52C154.185 12.6667 154.818 12.0133 155.631 11.56C156.458 11.0933 157.405 10.86 158.471 10.86C159.511 10.86 160.431 11.0867 161.231 11.54C162.031 11.9933 162.645 12.62 163.071 13.42C163.511 14.2067 163.731 15.1 163.731 16.1ZM161.851 15.72C161.851 15.0267 161.698 14.4333 161.391 13.94C161.085 13.4333 160.665 13.0533 160.131 12.8C159.611 12.5333 159.031 12.4 158.391 12.4C157.471 12.4 156.685 12.6933 156.031 13.28C155.391 13.8667 155.025 14.68 154.931 15.72H161.851ZM165.454 16.5C165.454 15.3667 165.68 14.38 166.134 13.54C166.587 12.6867 167.214 12.0267 168.014 11.56C168.827 11.0933 169.754 10.86 170.794 10.86C172.14 10.86 173.247 11.1867 174.114 11.84C174.994 12.4933 175.574 13.4 175.854 14.56H173.894C173.707 13.8933 173.34 13.3667 172.794 12.98C172.26 12.5933 171.594 12.4 170.794 12.4C169.754 12.4 168.914 12.76 168.274 13.48C167.634 14.1867 167.314 15.1933 167.314 16.5C167.314 17.82 167.634 18.84 168.274 19.56C168.914 20.28 169.754 20.64 170.794 20.64C171.594 20.64 172.26 20.4533 172.794 20.08C173.327 19.7067 173.694 19.1733 173.894 18.48H175.854C175.56 19.6 174.974 20.5 174.094 21.18C173.214 21.8467 172.114 22.18 170.794 22.18C169.754 22.18 168.827 21.9467 168.014 21.48C167.214 21.0133 166.587 20.3533 166.134 19.5C165.68 18.6467 165.454 17.6467 165.454 16.5ZM183.722 10.84C184.549 10.84 185.296 11.02 185.962 11.38C186.629 11.7267 187.149 12.2533 187.522 12.96C187.909 13.6667 188.102 14.5267 188.102 15.54V22H186.302V15.8C186.302 14.7067 186.029 13.8733 185.482 13.3C184.936 12.7133 184.189 12.42 183.242 12.42C182.282 12.42 181.516 12.72 180.942 13.32C180.382 13.92 180.102 14.7933 180.102 15.94V22H178.282V7.2H180.102V12.6C180.462 12.04 180.956 11.6067 181.582 11.3C182.222 10.9933 182.936 10.84 183.722 10.84Z" fill="#5C2410"/>
<defs>
<clipPath id="clip0_1_69">
<rect width="30" height="30" fill="white"/>
</clipPath>
</defs>
</svg>
