<svg width="238" height="235" viewBox="0 0 238 235" fill="none" xmlns="http://www.w3.org/2000/svg">
<path d="M216.219 234.424C169.044 234.424 130.801 208.639 130.801 176.831C130.801 152.992 152.282 132.536 182.906 123.783L238.001 232.535C231.047 233.767 223.747 234.424 216.219 234.424Z" fill="#025BF2"/>
<path d="M106.773 177.407C106.773 209.215 68.5297 235 21.3545 235C13.9808 235 6.82533 234.37 0 233.185L52.1051 123.659C84.086 131.983 106.773 152.909 106.773 177.407Z" fill="#F2B127"/>
<path fill-rule="evenodd" clip-rule="evenodd" d="M128.199 2.6828L176.443 102.39C161.249 111.768 141.008 117.489 118.786 117.489C96.5637 117.489 76.3234 111.768 61.1289 102.39L109.39 2.6482C109.394 2.64791 109.398 2.64761 109.402 2.64732C109.796 2.14897 114.065 0 118.784 0C123.517 0 127.846 2.14764 128.181 2.64813C128.181 2.64816 128.182 2.64818 128.182 2.6482L128.185 2.65373C128.191 2.6642 128.196 2.6739 128.199 2.6828Z" fill="#F20F88"/>
</svg>
