<svg width="194" height="30" viewBox="0 0 194 30" fill="none" xmlns="http://www.w3.org/2000/svg">
<path d="M22.8047 2.8125H26.9414L17.9063 13.1367L28.5352 27.1875H20.2148L13.6934 18.668L6.24023 27.1875H2.09766L11.7598 16.1426L1.57031 2.8125H10.1016L15.9902 10.5996L22.8047 2.8125ZM21.3516 24.7148H23.6426L8.85352 5.15625H6.39258L21.3516 24.7148Z" fill="#5C2410"/>
<path d="M66.54 9.18C68.02 9.18 69.3067 9.46 70.4 10.02C71.4933 10.58 72.3333 11.3667 72.92 12.38C73.5067 13.38 73.8 14.54 73.8 15.86C73.8 16.9133 73.6267 17.9267 73.28 18.9C72.9333 19.86 72.4267 20.64 71.76 21.24C71.1067 21.84 70.34 22.14 69.46 22.14C68.7933 22.14 68.28 21.9733 67.92 21.64C67.56 21.3067 67.3533 20.8533 67.3 20.28C66.8867 20.8533 66.36 21.3067 65.72 21.64C65.0933 21.9733 64.4267 22.14 63.72 22.14C62.7067 22.14 61.9067 21.8333 61.32 21.22C60.7467 20.5933 60.46 19.7533 60.46 18.7C60.46 17.7 60.6667 16.7667 61.08 15.9C61.5067 15.0333 62.0933 14.34 62.84 13.82C63.5867 13.2867 64.4333 13.02 65.38 13.02C66.6467 13.02 67.5 13.5 67.94 14.46L68.16 13.22H69.74L68.74 19C68.7 19.2533 68.68 19.4867 68.68 19.7C68.68 20.5 69.0333 20.9 69.74 20.9C70.2733 20.9 70.7333 20.6467 71.12 20.14C71.52 19.6333 71.82 19 72.02 18.24C72.22 17.4667 72.32 16.7067 72.32 15.96C72.32 14.2133 71.7933 12.86 70.74 11.9C69.7 10.94 68.2267 10.46 66.32 10.46C64.7333 10.46 63.3 10.8467 62.02 11.62C60.7533 12.38 59.76 13.4267 59.04 14.76C58.32 16.0933 57.96 17.5667 57.96 19.18C57.9467 20.94 58.4733 22.2933 59.54 23.24C60.6067 24.2 62.0867 24.68 63.98 24.68C65.2333 24.68 66.34 24.4533 67.3 24L67.54 25.24C66.3533 25.7333 65.0467 25.98 63.62 25.98C62.1933 25.98 60.9333 25.7067 59.84 25.16C58.76 24.6267 57.92 23.8533 57.32 22.84C56.7333 21.84 56.44 20.6733 56.44 19.34C56.44 17.46 56.8733 15.7467 57.74 14.2C58.6067 12.64 59.8067 11.4133 61.34 10.52C62.8867 9.62667 64.62 9.18 66.54 9.18ZM64.26 20.72C64.86 20.72 65.4133 20.5467 65.92 20.2C66.4267 19.84 66.8267 19.36 67.12 18.76C67.4133 18.1467 67.56 17.48 67.56 16.76C67.56 16.0667 67.3667 15.5067 66.98 15.08C66.6067 14.64 66.0733 14.42 65.38 14.42C64.74 14.42 64.1733 14.6133 63.68 15C63.2 15.3733 62.8267 15.8733 62.56 16.5C62.2933 17.1133 62.16 17.7533 62.16 18.42C62.16 19.1267 62.34 19.6867 62.7 20.1C63.06 20.5133 63.58 20.72 64.26 20.72ZM76.1139 16.48C76.1139 15.36 76.3406 14.38 76.7939 13.54C77.2472 12.6867 77.8672 12.0267 78.6539 11.56C79.4539 11.0933 80.3406 10.86 81.3139 10.86C82.2739 10.86 83.1072 11.0667 83.8139 11.48C84.5206 11.8933 85.0472 12.4133 85.3939 13.04V11.04H87.2339V22H85.3939V19.96C85.0339 20.6 84.4939 21.1333 83.7739 21.56C83.0672 21.9733 82.2406 22.18 81.2939 22.18C80.3206 22.18 79.4406 21.94 78.6539 21.46C77.8672 20.98 77.2472 20.3067 76.7939 19.44C76.3406 18.5733 76.1139 17.5867 76.1139 16.48ZM85.3939 16.5C85.3939 15.6733 85.2272 14.9533 84.8939 14.34C84.5606 13.7267 84.1072 13.26 83.5339 12.94C82.9739 12.6067 82.3539 12.44 81.6739 12.44C80.9939 12.44 80.3739 12.6 79.8139 12.92C79.2539 13.24 78.8072 13.7067 78.4739 14.32C78.1406 14.9333 77.9739 15.6533 77.9739 16.48C77.9739 17.32 78.1406 18.0533 78.4739 18.68C78.8072 19.2933 79.2539 19.7667 79.8139 20.1C80.3739 20.42 80.9939 20.58 81.6739 20.58C82.3539 20.58 82.9739 20.42 83.5339 20.1C84.1072 19.7667 84.5606 19.2933 84.8939 18.68C85.2272 18.0533 85.3939 17.3267 85.3939 16.5ZM92.1295 7.2V22H90.3095V7.2H92.1295ZM94.5514 16.48C94.5514 15.36 94.7781 14.38 95.2314 13.54C95.6847 12.6867 96.3047 12.0267 97.0914 11.56C97.8914 11.0933 98.7781 10.86 99.7514 10.86C100.711 10.86 101.545 11.0667 102.251 11.48C102.958 11.8933 103.485 12.4133 103.831 13.04V11.04H105.671V22H103.831V19.96C103.471 20.6 102.931 21.1333 102.211 21.56C101.505 21.9733 100.678 22.18 99.7314 22.18C98.7581 22.18 97.8781 21.94 97.0914 21.46C96.3047 20.98 95.6847 20.3067 95.2314 19.44C94.7781 18.5733 94.5514 17.5867 94.5514 16.48ZM103.831 16.5C103.831 15.6733 103.665 14.9533 103.331 14.34C102.998 13.7267 102.545 13.26 101.971 12.94C101.411 12.6067 100.791 12.44 100.111 12.44C99.4314 12.44 98.8114 12.6 98.2514 12.92C97.6914 13.24 97.2447 13.7067 96.9114 14.32C96.5781 14.9333 96.4114 15.6533 96.4114 16.48C96.4114 17.32 96.5781 18.0533 96.9114 18.68C97.2447 19.2933 97.6914 19.7667 98.2514 20.1C98.8114 20.42 99.4314 20.58 100.111 20.58C100.791 20.58 101.411 20.42 101.971 20.1C102.545 19.7667 102.998 19.2933 103.331 18.68C103.665 18.0533 103.831 17.3267 103.831 16.5ZM108.067 16.48C108.067 15.36 108.294 14.38 108.747 13.54C109.2 12.6867 109.82 12.0267 110.607 11.56C111.407 11.0933 112.3 10.86 113.287 10.86C114.14 10.86 114.934 11.06 115.667 11.46C116.4 11.8467 116.96 12.36 117.347 13V7.2H119.187V22H117.347V19.94C116.987 20.5933 116.454 21.1333 115.747 21.56C115.04 21.9733 114.214 22.18 113.267 22.18C112.294 22.18 111.407 21.94 110.607 21.46C109.82 20.98 109.2 20.3067 108.747 19.44C108.294 18.5733 108.067 17.5867 108.067 16.48ZM117.347 16.5C117.347 15.6733 117.18 14.9533 116.847 14.34C116.514 13.7267 116.06 13.26 115.487 12.94C114.927 12.6067 114.307 12.44 113.627 12.44C112.947 12.44 112.327 12.6 111.767 12.92C111.207 13.24 110.76 13.7067 110.427 14.32C110.094 14.9333 109.927 15.6533 109.927 16.48C109.927 17.32 110.094 18.0533 110.427 18.68C110.76 19.2933 111.207 19.7667 111.767 20.1C112.327 20.42 112.947 20.58 113.627 20.58C114.307 20.58 114.927 20.42 115.487 20.1C116.06 19.7667 116.514 19.2933 116.847 18.68C117.18 18.0533 117.347 17.3267 117.347 16.5ZM121.583 16.48C121.583 15.36 121.809 14.38 122.263 13.54C122.716 12.6867 123.336 12.0267 124.123 11.56C124.923 11.0933 125.809 10.86 126.783 10.86C127.743 10.86 128.576 11.0667 129.283 11.48C129.989 11.8933 130.516 12.4133 130.863 13.04V11.04H132.703V22H130.863V19.96C130.503 20.6 129.963 21.1333 129.243 21.56C128.536 21.9733 127.709 22.18 126.763 22.18C125.789 22.18 124.909 21.94 124.123 21.46C123.336 20.98 122.716 20.3067 122.263 19.44C121.809 18.5733 121.583 17.5867 121.583 16.48ZM130.863 16.5C130.863 15.6733 130.696 14.9533 130.363 14.34C130.029 13.7267 129.576 13.26 129.003 12.94C128.443 12.6067 127.823 12.44 127.143 12.44C126.463 12.44 125.843 12.6 125.283 12.92C124.723 13.24 124.276 13.7067 123.943 14.32C123.609 14.9333 123.443 15.6533 123.443 16.48C123.443 17.32 123.609 18.0533 123.943 18.68C124.276 19.2933 124.723 19.7667 125.283 20.1C125.843 20.42 126.463 20.58 127.143 20.58C127.823 20.58 128.443 20.42 129.003 20.1C129.576 19.7667 130.029 19.2933 130.363 18.68C130.696 18.0533 130.863 17.3267 130.863 16.5ZM146.978 22.76V24.44H136.338V22.76H146.978ZM152.666 12.54V19C152.666 19.5333 152.78 19.9133 153.006 20.14C153.233 20.3533 153.626 20.46 154.186 20.46H155.526V22H153.886C152.873 22 152.113 21.7667 151.606 21.3C151.1 20.8333 150.846 20.0667 150.846 19V12.54H149.426V11.04H150.846V8.28H152.666V11.04H155.526V12.54H152.666ZM167.731 16.1C167.731 16.4467 167.711 16.8133 167.671 17.2H158.911C158.978 18.28 159.345 19.1267 160.011 19.74C160.691 20.34 161.511 20.64 162.471 20.64C163.258 20.64 163.911 20.46 164.431 20.1C164.965 19.7267 165.338 19.2333 165.551 18.62H167.511C167.218 19.6733 166.631 20.5333 165.751 21.2C164.871 21.8533 163.778 22.18 162.471 22.18C161.431 22.18 160.498 21.9467 159.671 21.48C158.858 21.0133 158.218 20.3533 157.751 19.5C157.285 18.6333 157.051 17.6333 157.051 16.5C157.051 15.3667 157.278 14.3733 157.731 13.52C158.185 12.6667 158.818 12.0133 159.631 11.56C160.458 11.0933 161.405 10.86 162.471 10.86C163.511 10.86 164.431 11.0867 165.231 11.54C166.031 11.9933 166.645 12.62 167.071 13.42C167.511 14.2067 167.731 15.1 167.731 16.1ZM165.851 15.72C165.851 15.0267 165.698 14.4333 165.391 13.94C165.085 13.4333 164.665 13.0533 164.131 12.8C163.611 12.5333 163.031 12.4 162.391 12.4C161.471 12.4 160.685 12.6933 160.031 13.28C159.391 13.8667 159.025 14.68 158.931 15.72H165.851ZM169.454 16.5C169.454 15.3667 169.68 14.38 170.134 13.54C170.587 12.6867 171.214 12.0267 172.014 11.56C172.827 11.0933 173.754 10.86 174.794 10.86C176.14 10.86 177.247 11.1867 178.114 11.84C178.994 12.4933 179.574 13.4 179.854 14.56H177.894C177.707 13.8933 177.34 13.3667 176.794 12.98C176.26 12.5933 175.594 12.4 174.794 12.4C173.754 12.4 172.914 12.76 172.274 13.48C171.634 14.1867 171.314 15.1933 171.314 16.5C171.314 17.82 171.634 18.84 172.274 19.56C172.914 20.28 173.754 20.64 174.794 20.64C175.594 20.64 176.26 20.4533 176.794 20.08C177.327 19.7067 177.694 19.1733 177.894 18.48H179.854C179.56 19.6 178.974 20.5 178.094 21.18C177.214 21.8467 176.114 22.18 174.794 22.18C173.754 22.18 172.827 21.9467 172.014 21.48C171.214 21.0133 170.587 20.3533 170.134 19.5C169.68 18.6467 169.454 17.6467 169.454 16.5ZM187.722 10.84C188.549 10.84 189.296 11.02 189.962 11.38C190.629 11.7267 191.149 12.2533 191.522 12.96C191.909 13.6667 192.102 14.5267 192.102 15.54V22H190.302V15.8C190.302 14.7067 190.029 13.8733 189.482 13.3C188.936 12.7133 188.189 12.42 187.242 12.42C186.282 12.42 185.516 12.72 184.942 13.32C184.382 13.92 184.102 14.7933 184.102 15.94V22H182.282V7.2H184.102V12.6C184.462 12.04 184.956 11.6067 185.582 11.3C186.222 10.9933 186.936 10.84 187.722 10.84Z" fill="#5C2410"/>
</svg>
