<svg width="227" height="48" viewBox="0 0 227 48" fill="none" xmlns="http://www.w3.org/2000/svg">
<path d="M97.5436 31C97.1003 31 96.7153 30.8483 96.3886 30.545C96.0853 30.2183 95.9336 29.8217 95.9336 29.355V5.31C95.9336 4.84333 96.0853 4.45833 96.3886 4.155C96.7153 3.82833 97.1003 3.665 97.5436 3.665C98.0103 3.665 98.3953 3.82833 98.6986 4.155C99.0253 4.45833 99.1886 4.84333 99.1886 5.31V27.78H112.279C112.722 27.78 113.107 27.9317 113.434 28.235C113.76 28.5383 113.924 28.9233 113.924 29.39C113.924 29.8333 113.76 30.2183 113.434 30.545C113.107 30.8483 112.722 31 112.279 31H97.5436Z" fill="#025BF2"/>
<path d="M129.027 31C128.42 31 127.965 30.7433 127.662 30.23C127.359 29.7167 127.335 29.18 127.592 28.62L137.602 4.785C137.905 4.03833 138.419 3.665 139.142 3.665C139.912 3.665 140.437 4.03833 140.717 4.785L150.762 28.69C150.995 29.25 150.949 29.775 150.622 30.265C150.319 30.755 149.864 31 149.257 31C148.954 31 148.662 30.9183 148.382 30.755C148.102 30.5683 147.892 30.3117 147.752 29.985L138.687 7.725H139.702L130.567 29.985C130.427 30.335 130.217 30.5917 129.937 30.755C129.657 30.9183 129.354 31 129.027 31ZM131.057 24.805L132.352 22.04H146.247L147.507 24.805H131.057Z" fill="#025BF2"/>
<path d="M60.3186 31C59.7119 31 59.2569 30.7433 58.9536 30.23C58.6503 29.7167 58.6269 29.18 58.8836 28.62L68.8936 4.785C69.1969 4.03833 69.7103 3.665 70.4336 3.665C71.2036 3.665 71.7286 4.03833 72.0086 4.785L82.0536 28.69C82.2869 29.25 82.2403 29.775 81.9136 30.265C81.6103 30.755 81.1553 31 80.5486 31C80.2453 31 79.9536 30.9183 79.6736 30.755C79.3936 30.5683 79.1836 30.3117 79.0436 29.985L69.9786 7.725H70.9936L61.8586 29.985C61.7186 30.335 61.5086 30.5917 61.2286 30.755C60.9486 30.9183 60.6453 31 60.3186 31ZM62.3486 24.805L63.6436 22.04H77.5386L78.7986 24.805H62.3486Z" fill="#025BF2"/>
<path d="M201.887 31C201.281 31 200.826 30.7433 200.522 30.23C200.219 29.7167 200.196 29.18 200.452 28.62L210.462 4.785C210.766 4.03833 211.279 3.665 212.002 3.665C212.772 3.665 213.297 4.03833 213.577 4.785L223.622 28.69C223.856 29.25 223.809 29.775 223.482 30.265C223.179 30.755 222.724 31 222.117 31C221.814 31 221.522 30.9183 221.242 30.755C220.962 30.5683 220.752 30.3117 220.612 29.985L211.547 7.725H212.562L203.427 29.985C203.287 30.335 203.077 30.5917 202.797 30.755C202.517 30.9183 202.214 31 201.887 31ZM203.917 24.805L205.212 22.04H219.107L220.367 24.805H203.917Z" fill="#025BF2"/>
<path d="M166.286 31C165.819 31 165.423 30.8483 165.096 30.545C164.793 30.2183 164.641 29.8217 164.641 29.355V5.31C164.641 4.82 164.793 4.42333 165.096 4.12C165.423 3.81667 165.819 3.665 166.286 3.665H172.621C174.628 3.665 176.448 4.00333 178.081 4.68C179.738 5.33333 181.173 6.27833 182.386 7.515C183.599 8.72833 184.533 10.1633 185.186 11.82C185.863 13.4767 186.201 15.3083 186.201 17.315C186.201 19.3217 185.863 21.165 185.186 22.845C184.533 24.5017 183.599 25.9483 182.386 27.185C181.173 28.3983 179.738 29.3433 178.081 30.02C176.448 30.6733 174.628 31 172.621 31H166.286ZM167.931 28.06H172.621C174.651 28.06 176.436 27.605 177.976 26.695C179.539 25.7617 180.764 24.49 181.651 22.88C182.561 21.2467 183.016 19.3917 183.016 17.315C183.016 15.215 182.561 13.36 181.651 11.75C180.764 10.14 179.539 8.88 177.976 7.97C176.436 7.06 174.651 6.605 172.621 6.605H167.931V28.06Z" fill="#025BF2"/>
<path d="M45.9349 47.8813C35.9863 47.8813 27.9214 42.5845 27.9214 36.0505C27.9214 31.1535 32.4515 26.9514 38.9096 25.1533L50.5283 47.4932C49.0619 47.7464 47.5223 47.8813 45.9349 47.8813Z" fill="#025BF2"/>
<path d="M22.5168 36.1693C22.5168 42.7033 14.4519 48.0001 4.50337 48.0001C2.94836 48.0001 1.43937 47.8707 0 47.6273L10.9882 25.1284C17.7326 26.8382 22.5168 31.1368 22.5168 36.1693Z" fill="#F2B127"/>
<path fill-rule="evenodd" clip-rule="evenodd" d="M27.2 0.865992C27.2002 0.866006 27.2004 0.866019 27.2006 0.866033L37.3782 21.355C34.1739 23.2814 29.9055 24.4567 25.2191 24.4567C20.5328 24.4567 16.2644 23.2814 13.0601 21.355L23.2377 0.866033C23.2383 0.865991 23.2388 0.865949 23.2394 0.865907C23.3209 0.764135 24.222 0.321777 25.2181 0.321777C26.2171 0.321777 27.1305 0.763618 27.2 0.865992Z" fill="#F20F88"/>
<path d="M61.75 44H59.0568V35.2727H61.8693C62.7159 35.2727 63.4403 35.4474 64.0426 35.7969C64.6449 36.1435 65.1065 36.642 65.4276 37.2926C65.7486 37.9403 65.9091 38.7159 65.9091 39.6193C65.9091 40.5284 65.7472 41.3111 65.4233 41.9673C65.0994 42.6207 64.6278 43.1236 64.0085 43.4759C63.3892 43.8253 62.6364 44 61.75 44ZM60.1136 43.0625H61.6818C62.4034 43.0625 63.0014 42.9233 63.4759 42.6449C63.9503 42.3665 64.304 41.9702 64.5369 41.456C64.7699 40.9418 64.8864 40.3295 64.8864 39.6193C64.8864 38.9148 64.7713 38.3082 64.5412 37.7997C64.3111 37.2884 63.9673 36.8963 63.5099 36.6236C63.0526 36.348 62.483 36.2102 61.8011 36.2102H60.1136V43.0625ZM70.2898 44.1364C69.6591 44.1364 69.1151 43.9972 68.6577 43.7188C68.2031 43.4375 67.8523 43.0455 67.6051 42.5426C67.3608 42.0369 67.2386 41.4489 67.2386 40.7784C67.2386 40.108 67.3608 39.517 67.6051 39.0057C67.8523 38.4915 68.196 38.0909 68.6364 37.804C69.0795 37.5142 69.5966 37.3693 70.1875 37.3693C70.5284 37.3693 70.8651 37.4261 71.1974 37.5398C71.5298 37.6534 71.8324 37.8381 72.1051 38.0938C72.3778 38.3466 72.5952 38.6818 72.7571 39.0994C72.919 39.517 73 40.0312 73 40.642V41.0682H67.9545V40.1989H71.9773C71.9773 39.8295 71.9034 39.5 71.7557 39.2102C71.6108 38.9205 71.4034 38.6918 71.1335 38.5241C70.8665 38.3565 70.5511 38.2727 70.1875 38.2727C69.7869 38.2727 69.4403 38.3722 69.1477 38.571C68.858 38.767 68.6349 39.0227 68.4787 39.3381C68.3224 39.6534 68.2443 39.9915 68.2443 40.3523V40.9318C68.2443 41.4261 68.3295 41.8452 68.5 42.1889C68.6733 42.5298 68.9134 42.7898 69.2202 42.9688C69.527 43.1449 69.8835 43.233 70.2898 43.233C70.554 43.233 70.7926 43.196 71.0057 43.1222C71.2216 43.0455 71.4077 42.9318 71.5639 42.7812C71.7202 42.6278 71.8409 42.4375 71.9261 42.2102L72.8977 42.483C72.7955 42.8125 72.6236 43.1023 72.3821 43.3523C72.1406 43.5994 71.8423 43.7926 71.4872 43.9318C71.1321 44.0682 70.733 44.1364 70.2898 44.1364ZM79.1662 38.9205L78.2628 39.1761C78.206 39.0256 78.1222 38.8793 78.0114 38.7372C77.9034 38.5923 77.7557 38.473 77.5682 38.3793C77.3807 38.2855 77.1406 38.2386 76.848 38.2386C76.4474 38.2386 76.1136 38.331 75.8466 38.5156C75.5824 38.6974 75.4503 38.929 75.4503 39.2102C75.4503 39.4602 75.5412 39.6577 75.723 39.8026C75.9048 39.9474 76.1889 40.0682 76.5753 40.1648L77.5469 40.4034C78.1321 40.5455 78.5682 40.7628 78.8551 41.0554C79.142 41.3452 79.2855 41.7187 79.2855 42.1761C79.2855 42.5511 79.1776 42.8864 78.9616 43.1818C78.7486 43.4773 78.4503 43.7102 78.0668 43.8807C77.6832 44.0511 77.2372 44.1364 76.7287 44.1364C76.0611 44.1364 75.5085 43.9915 75.071 43.7017C74.6335 43.4119 74.3565 42.9886 74.2401 42.4318L75.1946 42.1932C75.2855 42.5455 75.4574 42.8097 75.7102 42.9858C75.9659 43.1619 76.2997 43.25 76.7116 43.25C77.1804 43.25 77.5526 43.1506 77.8281 42.9517C78.1065 42.75 78.2457 42.5085 78.2457 42.2273C78.2457 42 78.1662 41.8097 78.0071 41.6562C77.848 41.5 77.6037 41.3835 77.2741 41.3068L76.1832 41.0511C75.5838 40.9091 75.1435 40.6889 74.8622 40.3906C74.5838 40.0895 74.4446 39.7131 74.4446 39.2614C74.4446 38.892 74.5483 38.5653 74.7557 38.2812C74.9659 37.9972 75.2514 37.7741 75.6122 37.6122C75.9759 37.4503 76.3878 37.3693 76.848 37.3693C77.4957 37.3693 78.0043 37.5114 78.3736 37.7955C78.7457 38.0795 79.0099 38.4545 79.1662 38.9205ZM80.7994 44V37.4545H81.805V44H80.7994ZM81.3107 36.3636C81.1147 36.3636 80.9457 36.2969 80.8036 36.1634C80.6644 36.0298 80.5948 35.8693 80.5948 35.6818C80.5948 35.4943 80.6644 35.3338 80.8036 35.2003C80.9457 35.0668 81.1147 35 81.3107 35C81.5067 35 81.6744 35.0668 81.8136 35.2003C81.9556 35.3338 82.0266 35.4943 82.0266 35.6818C82.0266 35.8693 81.9556 36.0298 81.8136 36.1634C81.6744 36.2969 81.5067 36.3636 81.3107 36.3636ZM86.2891 46.5909C85.8033 46.5909 85.3857 46.5284 85.0362 46.4034C84.6868 46.2812 84.3956 46.1193 84.1626 45.9176C83.9325 45.7188 83.7493 45.5057 83.6129 45.2784L84.4141 44.7159C84.505 44.8352 84.62 44.9716 84.7592 45.125C84.8984 45.2812 85.0888 45.4162 85.3303 45.5298C85.5746 45.6463 85.8942 45.7045 86.2891 45.7045C86.8175 45.7045 87.2536 45.5767 87.5973 45.321C87.9411 45.0653 88.1129 44.6648 88.1129 44.1193V42.7898H88.0277C87.9538 42.9091 87.8487 43.0568 87.7124 43.233C87.5788 43.4062 87.3857 43.5611 87.1328 43.6974C86.8828 43.831 86.5447 43.8977 86.1186 43.8977C85.5902 43.8977 85.1158 43.7727 84.6953 43.5227C84.2777 43.2727 83.9467 42.9091 83.7024 42.4318C83.4609 41.9545 83.3402 41.375 83.3402 40.6932C83.3402 40.0227 83.4581 39.4389 83.6939 38.9418C83.9297 38.4418 84.2578 38.0554 84.6783 37.7827C85.0987 37.5071 85.5845 37.3693 86.1357 37.3693C86.5618 37.3693 86.8999 37.4403 87.1499 37.5824C87.4027 37.7216 87.5959 37.8807 87.7294 38.0597C87.8658 38.2358 87.9709 38.3807 88.0447 38.4943H88.147V37.4545H89.1186V44.1875C89.1186 44.75 88.9908 45.2074 88.7351 45.5597C88.4822 45.9148 88.1413 46.1747 87.7124 46.3395C87.2862 46.5071 86.8118 46.5909 86.2891 46.5909ZM86.255 42.9943C86.6584 42.9943 86.9993 42.902 87.2777 42.7173C87.5561 42.5327 87.7678 42.267 87.9126 41.9205C88.0575 41.5739 88.13 41.1591 88.13 40.6761C88.13 40.2045 88.0589 39.7884 87.9169 39.4276C87.7749 39.0668 87.5646 38.7841 87.2862 38.5795C87.0078 38.375 86.6641 38.2727 86.255 38.2727C85.8288 38.2727 85.4737 38.3807 85.1896 38.5966C84.9084 38.8125 84.6967 39.1023 84.5547 39.4659C84.4155 39.8295 84.3459 40.233 84.3459 40.6761C84.3459 41.1307 84.4169 41.5327 84.5589 41.8821C84.7038 42.2287 84.9169 42.5014 85.1982 42.7003C85.4822 42.8963 85.8345 42.9943 86.255 42.9943ZM91.9652 40.0625V44H90.9595V37.4545H91.9311V38.4773H92.0163C92.1697 38.1449 92.4027 37.8778 92.7152 37.6761C93.0277 37.4716 93.4311 37.3693 93.9254 37.3693C94.3686 37.3693 94.7564 37.4602 95.0888 37.642C95.4212 37.821 95.6797 38.0938 95.8643 38.4602C96.049 38.8239 96.1413 39.2841 96.1413 39.8409V44H95.1357V39.9091C95.1357 39.3949 95.0021 38.9943 94.7351 38.7074C94.468 38.4176 94.1016 38.2727 93.6357 38.2727C93.3146 38.2727 93.0277 38.3423 92.7749 38.4815C92.5249 38.6207 92.3274 38.8239 92.1825 39.0909C92.0376 39.358 91.9652 39.6818 91.9652 40.0625ZM114.309 44H111.615V35.2727H114.428C115.275 35.2727 115.999 35.4474 116.601 35.7969C117.203 36.1435 117.665 36.642 117.986 37.2926C118.307 37.9403 118.468 38.7159 118.468 39.6193C118.468 40.5284 118.306 41.3111 117.982 41.9673C117.658 42.6207 117.186 43.1236 116.567 43.4759C115.948 43.8253 115.195 44 114.309 44ZM112.672 43.0625H114.24C114.962 43.0625 115.56 42.9233 116.034 42.6449C116.509 42.3665 116.863 41.9702 117.096 41.456C117.328 40.9418 117.445 40.3295 117.445 39.6193C117.445 38.9148 117.33 38.3082 117.1 37.7997C116.87 37.2884 116.526 36.8963 116.069 36.6236C115.611 36.348 115.042 36.2102 114.36 36.2102H112.672V43.0625ZM122.848 44.1364C122.218 44.1364 121.674 43.9972 121.216 43.7188C120.762 43.4375 120.411 43.0455 120.164 42.5426C119.919 42.0369 119.797 41.4489 119.797 40.7784C119.797 40.108 119.919 39.517 120.164 39.0057C120.411 38.4915 120.755 38.0909 121.195 37.804C121.638 37.5142 122.155 37.3693 122.746 37.3693C123.087 37.3693 123.424 37.4261 123.756 37.5398C124.088 37.6534 124.391 37.8381 124.664 38.0938C124.936 38.3466 125.154 38.6818 125.316 39.0994C125.478 39.517 125.559 40.0312 125.559 40.642V41.0682H120.513V40.1989H124.536C124.536 39.8295 124.462 39.5 124.314 39.2102C124.169 38.9205 123.962 38.6918 123.692 38.5241C123.425 38.3565 123.11 38.2727 122.746 38.2727C122.346 38.2727 121.999 38.3722 121.706 38.571C121.417 38.767 121.194 39.0227 121.037 39.3381C120.881 39.6534 120.803 39.9915 120.803 40.3523V40.9318C120.803 41.4261 120.888 41.8452 121.059 42.1889C121.232 42.5298 121.472 42.7898 121.779 42.9688C122.086 43.1449 122.442 43.233 122.848 43.233C123.113 43.233 123.351 43.196 123.564 43.1222C123.78 43.0455 123.966 42.9318 124.123 42.7812C124.279 42.6278 124.4 42.4375 124.485 42.2102L125.456 42.483C125.354 42.8125 125.182 43.1023 124.941 43.3523C124.699 43.5994 124.401 43.7926 124.046 43.9318C123.691 44.0682 123.292 44.1364 122.848 44.1364ZM132.241 37.4545L129.821 44H128.798L126.378 37.4545H127.469L129.276 42.6705H129.344L131.151 37.4545H132.241ZM136.079 44.1364C135.448 44.1364 134.904 43.9972 134.447 43.7188C133.992 43.4375 133.641 43.0455 133.394 42.5426C133.15 42.0369 133.028 41.4489 133.028 40.7784C133.028 40.108 133.15 39.517 133.394 39.0057C133.641 38.4915 133.985 38.0909 134.425 37.804C134.869 37.5142 135.386 37.3693 135.977 37.3693C136.317 37.3693 136.654 37.4261 136.987 37.5398C137.319 37.6534 137.621 37.8381 137.894 38.0938C138.167 38.3466 138.384 38.6818 138.546 39.0994C138.708 39.517 138.789 40.0312 138.789 40.642V41.0682H133.744V40.1989H137.766C137.766 39.8295 137.692 39.5 137.545 39.2102C137.4 38.9205 137.192 38.6918 136.923 38.5241C136.656 38.3565 136.34 38.2727 135.977 38.2727C135.576 38.2727 135.229 38.3722 134.937 38.571C134.647 38.767 134.424 39.0227 134.268 39.3381C134.112 39.6534 134.033 39.9915 134.033 40.3523V40.9318C134.033 41.4261 134.119 41.8452 134.289 42.1889C134.462 42.5298 134.702 42.7898 135.009 42.9688C135.316 43.1449 135.673 43.233 136.079 43.233C136.343 43.233 136.582 43.196 136.795 43.1222C137.011 43.0455 137.197 42.9318 137.353 42.7812C137.509 42.6278 137.63 42.4375 137.715 42.2102L138.687 42.483C138.585 42.8125 138.413 43.1023 138.171 43.3523C137.93 43.5994 137.631 43.7926 137.276 43.9318C136.921 44.0682 136.522 44.1364 136.079 44.1364ZM141.325 35.2727V44H140.319V35.2727H141.325ZM145.826 44.1364C145.235 44.1364 144.716 43.9957 144.27 43.7145C143.827 43.4332 143.48 43.0398 143.23 42.5341C142.983 42.0284 142.86 41.4375 142.86 40.7614C142.86 40.0795 142.983 39.4844 143.23 38.9759C143.48 38.4673 143.827 38.0724 144.27 37.7912C144.716 37.5099 145.235 37.3693 145.826 37.3693C146.417 37.3693 146.934 37.5099 147.377 37.7912C147.823 38.0724 148.169 38.4673 148.417 38.9759C148.667 39.4844 148.792 40.0795 148.792 40.7614C148.792 41.4375 148.667 42.0284 148.417 42.5341C148.169 43.0398 147.823 43.4332 147.377 43.7145C146.934 43.9957 146.417 44.1364 145.826 44.1364ZM145.826 43.233C146.275 43.233 146.644 43.1179 146.934 42.8878C147.223 42.6577 147.438 42.3551 147.577 41.9801C147.716 41.6051 147.786 41.1989 147.786 40.7614C147.786 40.3239 147.716 39.9162 147.577 39.5384C147.438 39.1605 147.223 38.8551 146.934 38.6222C146.644 38.3892 146.275 38.2727 145.826 38.2727C145.377 38.2727 145.007 38.3892 144.718 38.6222C144.428 38.8551 144.213 39.1605 144.074 39.5384C143.935 39.9162 143.865 40.3239 143.865 40.7614C143.865 41.1989 143.935 41.6051 144.074 41.9801C144.213 42.3551 144.428 42.6577 144.718 42.8878C145.007 43.1179 145.377 43.233 145.826 43.233ZM150.327 46.4545V37.4545H151.298V38.4943H151.418C151.491 38.3807 151.594 38.2358 151.724 38.0597C151.858 37.8807 152.048 37.7216 152.295 37.5824C152.545 37.4403 152.884 37.3693 153.31 37.3693C153.861 37.3693 154.347 37.5071 154.767 37.7827C155.188 38.0582 155.516 38.4489 155.751 38.9545C155.987 39.4602 156.105 40.0568 156.105 40.7443C156.105 41.4375 155.987 42.0384 155.751 42.5469C155.516 43.0526 155.189 43.4446 154.771 43.723C154.354 43.9986 153.872 44.1364 153.327 44.1364C152.906 44.1364 152.57 44.0668 152.317 43.9276C152.064 43.7855 151.869 43.625 151.733 43.446C151.597 43.2642 151.491 43.1136 151.418 42.9943H151.332V46.4545H150.327ZM151.315 40.7273C151.315 41.2216 151.388 41.6577 151.533 42.0355C151.678 42.4105 151.889 42.7045 152.168 42.9176C152.446 43.1278 152.787 43.233 153.19 43.233C153.611 43.233 153.962 43.1222 154.243 42.9006C154.527 42.6761 154.74 42.375 154.882 41.9972C155.027 41.6165 155.099 41.1932 155.099 40.7273C155.099 40.267 155.028 39.8523 154.886 39.483C154.747 39.1108 154.536 38.8168 154.251 38.6009C153.97 38.3821 153.616 38.2727 153.19 38.2727C152.781 38.2727 152.438 38.3764 152.159 38.5838C151.881 38.7884 151.67 39.0753 151.528 39.4446C151.386 39.8111 151.315 40.2386 151.315 40.7273ZM170.594 44H167.901V35.2727H170.713C171.56 35.2727 172.284 35.4474 172.886 35.7969C173.489 36.1435 173.95 36.642 174.271 37.2926C174.592 37.9403 174.753 38.7159 174.753 39.6193C174.753 40.5284 174.591 41.3111 174.267 41.9673C173.943 42.6207 173.472 43.1236 172.852 43.4759C172.233 43.8253 171.48 44 170.594 44ZM168.957 43.0625H170.526C171.247 43.0625 171.845 42.9233 172.32 42.6449C172.794 42.3665 173.148 41.9702 173.381 41.456C173.614 40.9418 173.73 40.3295 173.73 39.6193C173.73 38.9148 173.615 38.3082 173.385 37.7997C173.155 37.2884 172.811 36.8963 172.354 36.6236C171.896 36.348 171.327 36.2102 170.645 36.2102H168.957V43.0625ZM179.048 44.1364C178.457 44.1364 177.939 43.9957 177.493 43.7145C177.05 43.4332 176.703 43.0398 176.453 42.5341C176.206 42.0284 176.082 41.4375 176.082 40.7614C176.082 40.0795 176.206 39.4844 176.453 38.9759C176.703 38.4673 177.05 38.0724 177.493 37.7912C177.939 37.5099 178.457 37.3693 179.048 37.3693C179.639 37.3693 180.156 37.5099 180.599 37.7912C181.045 38.0724 181.392 38.4673 181.639 38.9759C181.889 39.4844 182.014 40.0795 182.014 40.7614C182.014 41.4375 181.889 42.0284 181.639 42.5341C181.392 43.0398 181.045 43.4332 180.599 43.7145C180.156 43.9957 179.639 44.1364 179.048 44.1364ZM179.048 43.233C179.497 43.233 179.866 43.1179 180.156 42.8878C180.446 42.6577 180.661 42.3551 180.8 41.9801C180.939 41.6051 181.009 41.1989 181.009 40.7614C181.009 40.3239 180.939 39.9162 180.8 39.5384C180.661 39.1605 180.446 38.8551 180.156 38.6222C179.866 38.3892 179.497 38.2727 179.048 38.2727C178.599 38.2727 178.23 38.3892 177.94 38.6222C177.651 38.8551 177.436 39.1605 177.297 39.5384C177.158 39.9162 177.088 40.3239 177.088 40.7614C177.088 41.1989 177.158 41.6051 177.297 41.9801C177.436 42.3551 177.651 42.6577 177.94 42.8878C178.23 43.1179 178.599 43.233 179.048 43.233ZM183.549 44V37.4545H184.521V38.4773H184.606C184.743 38.1278 184.963 37.8565 185.267 37.6634C185.571 37.4673 185.936 37.3693 186.362 37.3693C186.794 37.3693 187.153 37.4673 187.44 37.6634C187.73 37.8565 187.956 38.1278 188.118 38.4773H188.186C188.353 38.1392 188.605 37.8707 188.94 37.6719C189.275 37.4702 189.677 37.3693 190.146 37.3693C190.731 37.3693 191.21 37.5526 191.582 37.919C191.954 38.2827 192.14 38.8494 192.14 39.6193V44H191.135V39.6193C191.135 39.1364 191.002 38.7912 190.738 38.5838C190.474 38.3764 190.163 38.2727 189.805 38.2727C189.345 38.2727 188.988 38.4119 188.735 38.6903C188.483 38.9659 188.356 39.3153 188.356 39.7386V44H187.333V39.517C187.333 39.1449 187.213 38.8452 186.971 38.6179C186.73 38.3878 186.419 38.2727 186.038 38.2727C185.777 38.2727 185.532 38.3423 185.305 38.4815C185.081 38.6207 184.899 38.8139 184.76 39.0611C184.623 39.3054 184.555 39.5881 184.555 39.9091V44H183.549ZM193.979 44V37.4545H194.985V44H193.979ZM194.49 36.3636C194.294 36.3636 194.125 36.2969 193.983 36.1634C193.844 36.0298 193.775 35.8693 193.775 35.6818C193.775 35.4943 193.844 35.3338 193.983 35.2003C194.125 35.0668 194.294 35 194.49 35C194.686 35 194.854 35.0668 194.993 35.2003C195.135 35.3338 195.206 35.4943 195.206 35.6818C195.206 35.8693 195.135 36.0298 194.993 36.1634C194.854 36.2969 194.686 36.3636 194.49 36.3636ZM197.832 40.0625V44H196.827V37.4545H197.798V38.4773H197.884C198.037 38.1449 198.27 37.8778 198.582 37.6761C198.895 37.4716 199.298 37.3693 199.793 37.3693C200.236 37.3693 200.624 37.4602 200.956 37.642C201.288 37.821 201.547 38.0938 201.732 38.4602C201.916 38.8239 202.009 39.2841 202.009 39.8409V44H201.003V39.9091C201.003 39.3949 200.869 38.9943 200.602 38.7074C200.335 38.4176 199.969 38.2727 199.503 38.2727C199.182 38.2727 198.895 38.3423 198.642 38.4815C198.392 38.6207 198.195 38.8239 198.05 39.0909C197.905 39.358 197.832 39.6818 197.832 40.0625ZM205.772 44.1534C205.358 44.1534 204.981 44.0753 204.643 43.919C204.305 43.7599 204.037 43.5312 203.838 43.233C203.639 42.9318 203.539 42.5682 203.539 42.142C203.539 41.767 203.613 41.4631 203.761 41.2301C203.909 40.9943 204.106 40.8097 204.353 40.6761C204.6 40.5426 204.873 40.4432 205.172 40.3778C205.473 40.3097 205.775 40.2557 206.079 40.2159C206.477 40.1648 206.799 40.1264 207.047 40.1009C207.297 40.0724 207.478 40.0256 207.592 39.9602C207.708 39.8949 207.767 39.7812 207.767 39.6193V39.5852C207.767 39.1648 207.652 38.8381 207.422 38.6051C207.194 38.3722 206.849 38.2557 206.386 38.2557C205.906 38.2557 205.529 38.3608 205.257 38.571C204.984 38.7812 204.792 39.0057 204.681 39.2443L203.727 38.9034C203.897 38.5057 204.125 38.196 204.409 37.9744C204.696 37.75 205.008 37.5937 205.346 37.5057C205.687 37.4148 206.022 37.3693 206.352 37.3693C206.562 37.3693 206.804 37.3949 207.076 37.446C207.352 37.4943 207.618 37.5952 207.873 37.7486C208.132 37.902 208.346 38.1335 208.517 38.4432C208.687 38.7528 208.772 39.1676 208.772 39.6875V44H207.767V43.1136H207.716C207.647 43.2557 207.534 43.4077 207.375 43.5696C207.216 43.7315 207.004 43.8693 206.74 43.983C206.475 44.0966 206.153 44.1534 205.772 44.1534ZM205.926 43.25C206.324 43.25 206.659 43.1719 206.931 43.0156C207.207 42.8594 207.414 42.6577 207.554 42.4105C207.696 42.1634 207.767 41.9034 207.767 41.6307V40.7102C207.724 40.7614 207.63 40.8082 207.485 40.8509C207.343 40.8906 207.179 40.9261 206.991 40.9574C206.806 40.9858 206.626 41.0114 206.45 41.0341C206.277 41.054 206.136 41.071 206.028 41.0852C205.767 41.1193 205.522 41.1747 205.295 41.2514C205.071 41.3253 204.889 41.4375 204.75 41.5881C204.613 41.7358 204.545 41.9375 204.545 42.1932C204.545 42.5426 204.674 42.8068 204.933 42.9858C205.194 43.1619 205.525 43.25 205.926 43.25ZM213.455 37.4545V38.3068H210.062V37.4545H213.455ZM211.051 35.8864H212.057V42.125C212.057 42.4091 212.098 42.6222 212.18 42.7642C212.266 42.9034 212.374 42.9972 212.504 43.0455C212.638 43.0909 212.778 43.1136 212.926 43.1136C213.037 43.1136 213.128 43.108 213.199 43.0966C213.27 43.0824 213.327 43.071 213.369 43.0625L213.574 43.9659C213.506 43.9915 213.411 44.017 213.288 44.0426C213.166 44.071 213.011 44.0852 212.824 44.0852C212.54 44.0852 212.261 44.0241 211.989 43.902C211.719 43.7798 211.494 43.5938 211.315 43.3438C211.139 43.0938 211.051 42.7784 211.051 42.3977V35.8864ZM217.641 44.1364C217.011 44.1364 216.467 43.9972 216.009 43.7188C215.555 43.4375 215.204 43.0455 214.957 42.5426C214.712 42.0369 214.59 41.4489 214.59 40.7784C214.59 40.108 214.712 39.517 214.957 39.0057C215.204 38.4915 215.548 38.0909 215.988 37.804C216.431 37.5142 216.948 37.3693 217.539 37.3693C217.88 37.3693 218.217 37.4261 218.549 37.5398C218.881 37.6534 219.184 37.8381 219.457 38.0938C219.729 38.3466 219.947 38.6818 220.109 39.0994C220.271 39.517 220.352 40.0312 220.352 40.642V41.0682H215.306V40.1989H219.329C219.329 39.8295 219.255 39.5 219.107 39.2102C218.962 38.9205 218.755 38.6918 218.485 38.5241C218.218 38.3565 217.903 38.2727 217.539 38.2727C217.138 38.2727 216.792 38.3722 216.499 38.571C216.21 38.767 215.987 39.0227 215.83 39.3381C215.674 39.6534 215.596 39.9915 215.596 40.3523V40.9318C215.596 41.4261 215.681 41.8452 215.852 42.1889C216.025 42.5298 216.265 42.7898 216.572 42.9688C216.879 43.1449 217.235 43.233 217.641 43.233C217.906 43.233 218.144 43.196 218.357 43.1222C218.573 43.0455 218.759 42.9318 218.915 42.7812C219.072 42.6278 219.192 42.4375 219.278 42.2102L220.249 42.483C220.147 42.8125 219.975 43.1023 219.734 43.3523C219.492 43.5994 219.194 43.7926 218.839 43.9318C218.484 44.0682 218.085 44.1364 217.641 44.1364Z" fill="#025BF2"/>
<ellipse cx="103.45" cy="39.8653" rx="1.61639" ry="1.37071" fill="#025BF2"/>
<path d="M163.531 39.8653C163.531 40.6224 162.807 41.236 161.914 41.236C161.022 41.236 160.298 40.6224 160.298 39.8653C160.298 39.1083 161.022 38.4946 161.914 38.4946C162.807 38.4946 163.531 39.1083 163.531 39.8653Z" fill="#025BF2"/>
</svg>
