<svg width="37" height="30" viewBox="0 0 37 30" fill="none" xmlns="http://www.w3.org/2000/svg">
<rect x="35" width="2" height="30" rx="1" fill="#F21189"/>
<path d="M1.875 7.5C0.839844 7.5 0 8.33984 0 9.375C0 9.96484 0.277344 10.5195 0.75 10.875L9.25 17.25C9.69531 17.582 10.3047 17.582 10.75 17.25L19.25 10.875C19.7227 10.5195 20 9.96484 20 9.375C20 8.33984 19.1602 7.5 18.125 7.5H1.875ZM0 11.875V20C0 21.3789 1.12109 22.5 2.5 22.5H17.5C18.8789 22.5 20 21.3789 20 20V11.875L11.5 18.25C10.6094 18.918 9.39063 18.918 8.5 18.25L0 11.875Z" fill="#F21189"/>
</svg>
