<svg width="30" height="30" viewBox="0 0 30 30" fill="none" xmlns="http://www.w3.org/2000/svg">
<g clip-path="url(#clip0_1_70)">
<path d="M15.0068 8.26172C10.7479 8.26172 7.31264 11.2676 7.31264 14.9941C7.31264 18.7207 10.7479 21.7266 15.0068 21.7266C19.2658 21.7266 22.701 18.7207 22.701 14.9941C22.701 11.2676 19.2658 8.26172 15.0068 8.26172ZM15.0068 19.3711C12.2546 19.3711 10.0046 17.4082 10.0046 14.9941C10.0046 12.5801 12.2479 10.6172 15.0068 10.6172C17.7658 10.6172 20.0091 12.5801 20.0091 14.9941C20.0091 17.4082 17.7591 19.3711 15.0068 19.3711ZM24.8104 7.98633C24.8104 8.85938 24.0068 9.55664 23.0158 9.55664C22.018 9.55664 21.2211 8.85352 21.2211 7.98633C21.2211 7.11914 22.0247 6.41602 23.0158 6.41602C24.0068 6.41602 24.8104 7.11914 24.8104 7.98633ZM29.9064 9.58008C29.7926 7.47656 29.2434 5.61328 27.4823 4.07812C25.7278 2.54297 23.5984 2.0625 21.1943 1.95703C18.7167 1.83398 11.2903 1.83398 8.81264 1.95703C6.41532 2.05664 4.28585 2.53711 2.52469 4.07227C0.763533 5.60742 0.221122 7.4707 0.100586 9.57422C-0.0400391 11.7422 -0.0400391 18.2402 0.100586 20.4082C0.214425 22.5117 0.763533 24.375 2.52469 25.9102C4.28585 27.4453 6.40862 27.9258 8.81264 28.0312C11.2903 28.1543 18.7167 28.1543 21.1943 28.0312C23.5984 27.9316 25.7278 27.4512 27.4823 25.9102C29.2367 24.375 29.7859 22.5117 29.9064 20.4082C30.047 18.2402 30.047 11.748 29.9064 9.58008ZM26.7055 22.7344C26.1832 23.8828 25.172 24.7676 23.8528 25.2305C21.8774 25.916 17.1899 25.7578 15.0068 25.7578C12.8238 25.7578 8.1296 25.9102 6.16085 25.2305C4.84835 24.7734 3.83719 23.8887 3.30818 22.7344C2.52469 21.0059 2.7055 16.9043 2.7055 14.9941C2.7055 13.084 2.53139 8.97656 3.30818 7.25391C3.8305 6.10547 4.84166 5.2207 6.16085 4.75781C8.1363 4.07227 12.8238 4.23047 15.0068 4.23047C17.1899 4.23047 21.8841 4.07812 23.8528 4.75781C25.1653 5.21484 26.1765 6.09961 26.7055 7.25391C27.489 8.98242 27.3082 13.084 27.3082 14.9941C27.3082 16.9043 27.489 21.0117 26.7055 22.7344Z" fill="#F21189"/>
</g>
<defs>
<clipPath id="clip0_1_70">
<rect width="30" height="30" fill="white"/>
</clipPath>
</defs>
</svg>
