<svg width="30" height="30" viewBox="0 0 30 30" fill="none" xmlns="http://www.w3.org/2000/svg">
<g clip-path="url(#clip0_1_75)">
<path d="M30 15C30 23.0273 23.2863 29.5312 15 29.5312C13.4516 29.5312 11.9637 29.3027 10.5605 28.8809C11.1714 27.9141 12.0847 26.332 12.4234 25.0723C12.6048 24.3926 13.3548 21.6152 13.3548 21.6152C13.8448 22.5176 15.2722 23.2852 16.7903 23.2852C21.3145 23.2852 24.5746 19.2539 24.5746 14.2441C24.5746 9.44531 20.5282 5.85352 15.3266 5.85352C8.85484 5.85352 5.41331 10.0605 5.41331 14.6484C5.41331 16.7812 6.58669 19.4355 8.45565 20.2793C8.73992 20.4082 8.89113 20.3496 8.95766 20.0859C9.00605 19.8867 9.26008 18.8965 9.375 18.4395C9.41129 18.293 9.39314 18.1641 9.27218 18.0234C8.66129 17.291 8.16532 15.9551 8.16532 14.707C8.16532 11.502 10.6694 8.40234 14.9395 8.40234C18.623 8.40234 21.2056 10.834 21.2056 14.3145C21.2056 18.2461 19.1552 20.9707 16.4879 20.9707C15.0181 20.9707 13.9113 19.793 14.2681 18.3457C14.6915 16.6172 15.5081 14.7539 15.5081 13.5059C15.5081 12.3926 14.8911 11.4609 13.6089 11.4609C12.1028 11.4609 10.8931 12.9668 10.8931 14.9883C10.8931 16.2773 11.3407 17.1445 11.3407 17.1445C11.3407 17.1445 9.85887 23.2266 9.58669 24.3633C9.28427 25.6172 9.40524 27.3867 9.53226 28.5352C3.95565 26.4199 0 21.1582 0 15C0 6.97266 6.71371 0.46875 15 0.46875C23.2863 0.46875 30 6.97266 30 15Z" fill="#F21189"/>
</g>
<defs>
<clipPath id="clip0_1_75">
<rect width="30" height="30" fill="white"/>
</clipPath>
</defs>
</svg>
