<svg width="37" height="30" viewBox="0 0 37 30" fill="none" xmlns="http://www.w3.org/2000/svg">
<rect x="35" width="2" height="30" rx="1" fill="#F21189"/>
<g clip-path="url(#clip0_78_28)">
<path d="M10 15C11.5155 15 12.969 14.4732 14.0406 13.5355C15.1122 12.5979 15.7143 11.3261 15.7143 10C15.7143 8.67392 15.1122 7.40215 14.0406 6.46447C12.969 5.52678 11.5155 5 10 5C8.48448 5 7.03103 5.52678 5.95939 6.46447C4.88775 7.40215 4.28571 8.67392 4.28571 10C4.28571 11.3261 4.88775 12.5979 5.95939 13.5355C7.03103 14.4732 8.48448 15 10 15ZM7.95982 16.875C3.5625 16.875 0 19.9922 0 23.8398C0 24.4805 0.59375 25 1.32589 25H18.6741C19.4062 25 20 24.4805 20 23.8398C20 19.9922 16.4375 16.875 12.0402 16.875H7.95982Z" fill="#F21189"/>
</g>
<defs>
<clipPath id="clip0_78_28">
<rect width="20" height="20" fill="white" transform="translate(0 5)"/>
</clipPath>
</defs>
</svg>
